<svg width="19" height="18" viewBox="0 0 19 18" fill="none" xmlns="http://www.w3.org/2000/svg">
<path d="M18.4 16.2658L13.4 11.519C14.4 10.2848 14.9 8.86076 14.9 7.24684C14.9 3.35443 11.5 0.126587 7.4 0.126587C3.3 0.126587 0 3.35443 0 7.24684C0 11.1392 3.4 14.3671 7.5 14.3671C9.2 14.3671 10.8 13.7975 12 12.943L17 17.6899L18.4 16.2658ZM2 7.24684C2 4.39874 4.5 2.02532 7.5 2.02532C10.5 2.02532 13 4.39874 13 7.24684C13 10.0949 10.5 12.4684 7.5 12.4684C4.5 12.4684 2 10.0949 2 7.24684Z" fill="#EBEFEF"/>
</svg>
