<svg width="151" height="49" viewBox="0 0 151 49" fill="none" xmlns="http://www.w3.org/2000/svg">
<path d="M53.5611 41.7553H56.3517V48.8023H58.6045V41.7553H61.3952V39.8783H53.5611V41.7553Z" fill="#222222"/>
<path d="M70.944 45.1142C70.944 46.3655 70.3052 47.057 69.1956 47.057C68.0524 47.057 67.4472 46.3326 67.4472 45.1142V39.8783H65.1945V45.1471C65.1945 46.3326 65.5643 47.2546 66.2704 47.9462C66.9765 48.6377 67.9516 48.9999 69.1956 48.9999C70.406 48.9999 71.3811 48.6706 72.1208 47.9462C72.8269 47.2546 73.1967 46.2997 73.1967 45.1471V39.8783H70.944V45.1142Z" fill="#222222"/>
<path d="M81.2662 39.8783H77.4668V48.8023H81.2662C82.6111 48.8023 83.7543 48.3742 84.6285 47.5181C85.5027 46.6619 85.9734 45.5752 85.9734 44.3239C85.9734 43.0725 85.5363 41.9858 84.6285 41.1626C83.7206 40.3064 82.6111 39.8783 81.2662 39.8783ZM82.9473 46.2009C82.443 46.6619 81.7705 46.9253 80.9636 46.9253H79.6859V41.7553H80.9636C81.7705 41.7553 82.4094 41.9858 82.9473 42.4798C83.4517 42.9408 83.7207 43.5665 83.7207 44.3568C83.7207 45.1142 83.4517 45.7069 82.9473 46.2009Z" fill="#222222"/>
<path d="M92.1935 39.8783H89.9408V48.8023H92.1935V39.8783Z" fill="#222222"/>
<path d="M100.868 39.6807C99.5233 39.6807 98.4138 40.1417 97.5396 41.0309C96.6654 41.92 96.2283 43.0067 96.2283 44.3239C96.2283 45.6411 96.6654 46.7277 97.5396 47.6169C98.4138 48.506 99.5233 48.967 100.868 48.967C102.213 48.967 103.323 48.506 104.197 47.6169C105.071 46.6948 105.508 45.6081 105.508 44.3239C105.508 43.0067 105.071 41.92 104.197 41.0309C103.289 40.1417 102.18 39.6807 100.868 39.6807ZM102.617 46.2338C102.213 46.7936 101.608 47.057 100.868 47.057C100.129 47.057 99.5233 46.7936 99.1199 46.2338C98.7164 45.674 98.481 45.0483 98.481 44.3239C98.481 43.5994 98.6828 42.9737 99.1199 42.4139C99.5569 41.8541 100.129 41.5907 100.868 41.5907C101.608 41.5907 102.213 41.887 102.617 42.4139C103.054 42.9737 103.255 43.5994 103.255 44.3239C103.255 45.0483 103.02 45.7069 102.617 46.2338Z" fill="#222222"/>
<path d="M46.3322 39.6808C44.1467 39.6808 42.7009 40.8004 42.7009 42.3811C42.7009 43.369 43.1716 43.9617 43.8105 44.3239C45.3907 45.246 48.0469 45.0813 48.0469 46.2668C48.0469 46.8925 47.5426 47.1888 46.6684 47.1888C45.5925 47.1888 44.92 46.7608 44.8191 46.0034L42.7009 46.5303C42.9363 47.9792 44.3484 49 46.6348 49C48.8203 49 50.266 47.8804 50.266 46.2997C50.266 45.3118 49.7953 44.7191 49.1565 44.3569C47.5762 43.4348 44.92 43.5995 44.92 42.414C44.92 41.7883 45.4244 41.492 46.2985 41.492C47.3409 41.492 47.8788 41.8871 47.9797 42.6445L50.0643 42.1176C49.8962 40.6687 48.6185 39.6808 46.3322 39.6808Z" fill="#222222"/>
<path d="M19.9383 16.4979C19.4003 15.6747 18.6943 15.0161 17.8873 14.5221C14.9621 12.5793 10.692 12.1841 8.20395 10.9986C6.99353 10.4388 6.22021 9.68142 6.22021 8.46301C6.22021 6.52014 7.63237 5.5981 9.98596 5.5981C12.9448 5.5981 14.4578 6.94823 14.6931 9.38505L20.5099 7.96906C20.0055 3.293 16.4415 0 9.98596 0C3.93386 0 0 3.45765 0 8.43008C0 10.2412 0.437096 11.6243 1.1768 12.678C1.68114 13.4025 2.35359 13.9952 3.09329 14.4892C6.11934 16.4979 10.6248 16.8602 13.0456 18.1444C14.0879 18.7042 14.7604 19.4287 14.7604 20.5154C14.7604 22.4583 13.3482 23.3803 10.9946 23.3803C8.10309 23.3803 6.59006 22.129 6.32108 19.7909L0.504341 21.2069C1.10955 25.7842 4.63994 28.9784 11.0283 28.9784C17.0804 28.9784 21.0142 25.5207 21.0142 20.5483C20.9806 18.836 20.5771 17.5517 19.9383 16.4979Z" fill="#222222"/>
<path d="M24.511 6.12487H31.8072V28.5173H37.6239V6.12487H44.9201V0.559696H24.511V6.12487Z" fill="#222222"/>
<path d="M103.222 6.12487H115.595L103.222 22.9192V28.4843H123.16V22.9192H110.787L123.16 6.12487V0.559695H103.222V6.12487Z" fill="#222222"/>
<path d="M50.7367 28.5176H71.1794V22.9195H56.5198V17.3214H71.1794V11.7233H50.7367V28.5176Z" fill="#222222"/>
<path d="M76.9961 28.5176H97.4051V22.9195H82.7792V17.3214H97.4051V11.7233H76.9961V28.5176Z" fill="#222222"/>
<path d="M97.4057 0.559695H50.7373V6.15779H97.4057V0.559695Z" fill="#222222"/>
<path d="M144.074 0.559695L138.829 11.723L133.583 0.559695H126.691L135.937 17.354V28.5173H141.72V17.7821L151 0.559695H144.074Z" fill="#222222"/>
</svg>
